<?xml version="1.0" encoding="UTF-8" standalone="no"?>
<!-- Created with Inkscape (http://www.inkscape.org/) -->

<svg
   width="300"
   height="300"
   viewBox="0 0 79.374998 79.375"
   version="1.1"
   id="svg5"
   xmlns="http://www.w3.org/2000/svg"
   xmlns:svg="http://www.w3.org/2000/svg">
  <defs
     id="defs2" />
  <rect
     style="fill:#663399;fill-opacity:1;stroke-width:2.62019"
     id="rect6205"
     width="79.375"
     height="79.375"
     x="0"
     y="0" />
  <g
     id="g1003"
     transform="matrix(0.8204425,0,0,0.8204425,7.1261852,17.437271)">
    <g
       style="fill:#ffffff;fill-opacity:1"
       id="g297"
       transform="matrix(1.2647682,0,0,1.2647682,25.247284,9.5040998)">
      <g
         id="g272"
         style="fill:#ffffff;fill-opacity:1">
	<path
   d="M 27.604,6.751 14.176,20.18 c -0.338,0.336 -0.885,0.336 -1.223,0 l -0.27,-0.27 v 0 L 12.39,19.617 11.122,18.349 11.104,18.322 5.297,12.47 c -0.336,-0.336 -0.336,-0.885 0,-1.221 l 1.83,-1.828 c 0.338,-0.339 0.883,-0.339 1.221,0 L 13.571,14.683 24.551,3.7 c 0.338,-0.337 0.885,-0.337 1.221,0 l 1.832,1.832 c 0.335,0.335 0.335,0.883 0,1.219 z"
   id="path238"
   style="fill:#ffffff;fill-opacity:1" />

	<path
   d="m 21.795,22.613 c 0,0.973 -0.793,1.766 -1.768,1.766 H 3.535 c -0.975,0 -1.768,-0.793 -1.768,-1.766 V 5.241 c 0,-0.973 0.793,-1.766 1.768,-1.766 h 16.492 c 0.975,0 1.768,0.793 1.768,1.766 v 0 L 23.051,4.079 C 23.254,2.649 21.809,1.71 20.027,1.71 H 3.535 C 1.582,1.71 0,3.29 0,5.241 v 17.372 c 0,1.951 1.582,3.533 3.535,3.533 h 16.492 c 1.953,0 3.535,-1.582 3.535,-3.533 V 12.257 l -1.768,1.924 z"
   id="path240"
   style="fill:#ffffff;fill-opacity:1" />

	<g
   id="g242"
   style="fill:#ffffff;fill-opacity:1">
	</g>

	<g
   id="g244"
   style="fill:#ffffff;fill-opacity:1">
	</g>

	<g
   id="g246"
   style="fill:#ffffff;fill-opacity:1">
	</g>

	<g
   id="g248"
   style="fill:#ffffff;fill-opacity:1">
	</g>

	<g
   id="g250"
   style="fill:#ffffff;fill-opacity:1">
	</g>

	<g
   id="g252"
   style="fill:#ffffff;fill-opacity:1">
	</g>

	<g
   id="g254"
   style="fill:#ffffff;fill-opacity:1">
	</g>

	<g
   id="g256"
   style="fill:#ffffff;fill-opacity:1">
	</g>

	<g
   id="g258"
   style="fill:#ffffff;fill-opacity:1">
	</g>

	<g
   id="g260"
   style="fill:#ffffff;fill-opacity:1">
	</g>

	<g
   id="g262"
   style="fill:#ffffff;fill-opacity:1">
	</g>

	<g
   id="g264"
   style="fill:#ffffff;fill-opacity:1">
	</g>

	<g
   id="g266"
   style="fill:#ffffff;fill-opacity:1">
	</g>

	<g
   id="g268"
   style="fill:#ffffff;fill-opacity:1">
	</g>

	<g
   id="g270"
   style="fill:#ffffff;fill-opacity:1">
	</g>

</g>
    </g>
    <path
       d="M 20.329249,54.239582 Q 15.777939,54.209096 12.986448,53.237391 10.194957,52.265577 8.9206059,50.230831 7.6462184,48.226457 7.6462184,45.12879 v -9.444856 q 0,-2.065111 -0.8798915,-3.310253 Q 5.8863988,31.128538 4.1872399,30.551522 2.488081,29.974505 3.333206e-6,29.974505 V 24.234707 Q 2.488081,24.234707 4.1872399,23.688059 5.8863988,23.111043 6.7663269,21.865904 7.6462184,20.590393 7.6462184,18.555647 V 9.0500571 q 0,-3.1280386 1.3047362,-5.1324125 Q 10.255654,1.9132708 13.047145,0.97182088 15.868948,2.4676257e-6 20.329249,2.4676257e-6 V 5.4664797 q -1.941911,0.060752 -3.337657,0.5466444 -1.395709,0.485911 -2.12393,1.6095757 -0.728221,1.0932925 -0.728221,3.0065612 v 9.110791 q 0,3.006561 -1.729508,4.798348 -1.699159,1.79179 -5.0974767,2.368807 v 0.364437 q 3.4286667,0.51628 5.1278257,2.338439 1.699159,1.791787 1.699159,4.798347 v 9.201901 q 0,1.913265 0.728221,3.006561 0.728221,1.123665 2.12393,1.579204 1.395746,0.485911 3.337657,0.516279 z"
       id="path1024-3"
       style="font-weight:600;font-size:16.9333px;font-family:'Open Sans';-inkscape-font-specification:'Open Sans Semi-Bold';text-align:center;text-anchor:middle;fill:#ffffff;fill-opacity:1;stroke-width:3.67137" />
    <path
       d="m 59.076142,54.239582 v -5.527214 q 1.911526,-0.06075 3.276923,-0.546648 1.395746,-0.455539 2.123967,-1.579204 0.758533,-1.093296 0.758533,-3.006561 v -9.14116 q 0,-3.006561 1.729508,-4.798351 1.729508,-1.822159 5.097477,-2.338435 v -0.364437 q -3.398318,-0.577017 -5.127826,-2.368804 -1.699159,-1.79179 -1.699159,-4.798351 v -9.171529 q 0,-1.9132679 -0.728184,-3.0065641 Q 63.779159,6.4686629 62.383414,5.9827519 61.018017,5.4968445 59.076142,5.466476 V -1.2053932e-6 q 4.520962,0 7.312416,0.9718184153932 2.791491,0.97181839 4.065879,2.97619229 1.274351,2.0043739 1.274351,5.1324124 v 9.4448531 q 0,2.065114 0.879928,3.340625 0.879928,1.245139 2.579087,1.822156 1.699159,0.546648 4.1872,0.546648 v 5.739797 q -2.488041,0 -4.1872,0.577017 -1.699159,0.577016 -2.579087,1.822159 -0.879928,1.245142 -0.879928,3.279885 v 9.505593 q 0,3.09767 -1.3047,5.102044 -1.304736,2.034743 -4.09619,3.006561 -2.791492,0.971818 -7.251756,0.971822 z"
       id="path1028-6"
       style="font-weight:600;font-size:16.9333px;font-family:'Open Sans';-inkscape-font-specification:'Open Sans Semi-Bold';text-align:center;text-anchor:middle;fill:#ffffff;fill-opacity:1;stroke-width:3.67137" />
  </g>
</svg>
