<?xml version="1.0" encoding="UTF-8" standalone="no"?>
<!-- Created with Inkscape (http://www.inkscape.org/) -->

<svg
   width="300"
   height="205"
   viewBox="0 0 79.374998 54.239583"
   version="1.1"
   id="svg5"
   xmlns="http://www.w3.org/2000/svg"
   xmlns:svg="http://www.w3.org/2000/svg">
  <defs
     id="defs2" />
  <g
     id="layer1">
    <g
       aria-label="{x}"
       id="text1022"
       style="font-weight:600;font-size:16.9333px;font-family:'Open Sans';-inkscape-font-specification:'Open Sans Semi-Bold';text-align:center;text-anchor:middle;fill:#ffffff;fill-opacity:1"
       transform="matrix(3.6697311,0,0,3.6730191,-422.31067,-287.66732)">
      <path
         d="m 120.61917,93.086067 q -1.24023,-0.0083 -2.00091,-0.272852 -0.76068,-0.264582 -1.10794,-0.818553 -0.34727,-0.545702 -0.34727,-1.389059 v -2.571415 q 0,-0.562238 -0.23977,-0.901235 -0.23978,-0.338997 -0.7028,-0.496093 -0.46302,-0.157096 -1.14102,-0.157096 v -1.562692 q 0.678,0 1.14102,-0.148828 0.46302,-0.157096 0.7028,-0.496092 0.23977,-0.347265 0.23977,-0.901236 v -2.58795 q 0,-0.851626 0.35554,-1.397328 0.35553,-0.545702 1.11621,-0.802017 0.76894,-0.264583 1.98437,-0.264583 v 1.488279 q -0.52917,0.01654 -0.90951,0.148827 -0.38033,0.132292 -0.57877,0.438216 -0.19844,0.297655 -0.19844,0.818553 v 2.480464 q 0,0.818553 -0.47129,1.306377 -0.46302,0.487825 -1.38906,0.644921 v 0.09922 q 0.93431,0.14056 1.39733,0.636653 0.46302,0.487824 0.46302,1.306377 v 2.505269 q 0,0.520897 0.19844,0.818553 0.19844,0.305924 0.57877,0.429947 0.38034,0.132292 0.90951,0.14056 z"
         id="path1024"
         style="fill:#ffffff;fill-opacity:1" />
      <path
         d="m 124.64579,85.727357 -3.05924,-4.473103 h 2.21588 l 2.09186,3.216335 2.10012,-3.216335 h 2.20762 l -3.07578,4.473103 3.23287,4.679809 h -2.22415 l -2.24068,-3.431309 -2.24896,3.431309 h -2.20761 z"
         id="path1026"
         style="fill:#ffffff;fill-opacity:1" />
      <path
         d="m 131.17768,93.086067 v -1.504815 q 0.52089,-0.01654 0.89296,-0.148828 0.38034,-0.124023 0.57878,-0.429947 0.2067,-0.297656 0.2067,-0.818553 v -2.488732 q 0,-0.818553 0.47129,-1.306378 0.47129,-0.496093 1.38906,-0.636652 v -0.09922 q -0.92604,-0.157096 -1.39733,-0.64492 -0.46302,-0.487825 -0.46302,-1.306378 v -2.497 q 0,-0.520898 -0.19843,-0.818554 -0.19844,-0.305923 -0.57878,-0.438215 -0.37207,-0.132291 -0.90123,-0.140559 v -1.488279 q 1.23196,0 1.99263,0.264583 0.76068,0.264583 1.10795,0.810285 0.34726,0.545702 0.34726,1.397328 v 2.571414 q 0,0.562239 0.23978,0.909504 0.23978,0.338996 0.7028,0.496092 0.46302,0.148828 1.14101,0.148828 v 1.562692 q -0.67799,0 -1.14101,0.157096 -0.46302,0.157096 -0.7028,0.496093 -0.23978,0.338997 -0.23978,0.892967 v 2.587951 q 0,0.843358 -0.35553,1.38906 -0.35554,0.55397 -1.11621,0.818553 -0.76068,0.264583 -1.9761,0.264584 z"
         id="path1028"
         style="fill:#ffffff;fill-opacity:1" />
    </g>
  </g>
</svg>
